<svg xmlns="http://www.w3.org/2000/svg" width="326" height="279" viewBox="0 0 326 279"><g fill="none">
    <defs>  
      <clipPath id="b">
        <path d="M200 133 200 2 0 2 0 202 91 202 113 167 113 115 113 115 143 115C149 107 155 103 167 102 179 103 185 107 190 115Z"></path>
      </clipPath>
    </defs>
    <path stroke="#ff8904" stroke-width="26" clip-path="url(#b)" d="M13 13 187 13 187 102 100 102 100 189 13 189ZM100 13 100 102 13 102"></path>
  </g><path fill="#00dc82" d="M213.618 277.029h95.166c3.023 0 5.992-.771 8.61-2.237a16.96 16.96 0 006.302-6.115 16.3 16.3 0 002.304-8.352c0-2.932-.799-5.811-2.312-8.35L259.778 144.6a16.97 16.97 0 00-6.301-6.113 17.6 17.6 0 00-8.608-2.238c-3.023 0-5.991.772-8.609 2.238a16.96 16.96 0 00-6.3 6.113l-16.342 27.473-31.95-53.724a17 17 0 00-6.304-6.112A17.64 17.64 0 00166.754 110c-3.022 0-5.992.772-8.61 2.237a17 17 0 00-6.303 6.112L72.31 251.975a16.3 16.3 0 00-2.31 8.35c0 2.932.793 5.813 2.304 8.352a16.96 16.96 0 006.302 6.115 17.6 17.6 0 008.61 2.237h59.737c23.669 0 41.123-10.084 53.134-29.758l29.159-48.983 15.618-26.215 46.874 78.742h-62.492zm-67.64-26.24-41.688-.01L166.782 145.796l31.181 52.492-20.877 35.084c-7.976 12.765-17.037 17.416-31.107 17.416"></path></svg>